<svg width="93" height="104" viewBox="0 0 93 104" fill="none" xmlns="http://www.w3.org/2000/svg">
<path d="M0 24C0 17.3726 5.37258 12 12 12H92V92H12C5.37259 92 0 86.6274 0 80V24Z" fill="#1F1D2B"/>
<path d="M88.5 8C92.5 4 92 0 92 0V12H80C80 12 84.5 12 88.5 8Z" fill="#1F1D2B"/>
<path d="M88.01 95.51C84.01 91.51 80.01 92.01 80.01 92.01H92.01V104.01C92.01 104.01 92.01 99.51 88.01 95.51Z" fill="#1F1D2B"/>
<rect x="12" y="25" width="56" height="56" rx="8" fill="#1F1D2B"/>
<path d="M38.4978 47.7606C38.5855 47.9348 38.6382 48.1239 38.6533 48.321L39.0419 53.8095C39.0471 53.8847 39.0827 53.9548 39.1409 54.0042C39.1845 54.0413 39.2381 54.0645 39.298 54.0712L39.3599 54.0724L44.9341 53.7366C45.3867 53.71 45.8305 53.8675 46.1604 54.1719C46.4902 54.4763 46.6768 54.9004 46.6744 55.3912C46.4265 59.0037 43.773 62.0237 40.159 62.8065C36.545 63.5893 32.8361 61.9474 31.0578 58.7848C30.5823 57.9695 30.2618 57.0778 30.1138 56.1749L30.0664 55.8359C30.0253 55.5821 30.0032 55.3257 30 55.0795L30.0031 54.8372C30.0134 51.0655 32.6616 47.804 36.3881 46.9243L36.6438 46.8681L36.7814 46.8453C37.502 46.7468 38.211 47.1245 38.4978 47.7606ZM37.0164 48.2781L36.9322 48.2877L36.7037 48.3393C33.7353 49.0548 31.6062 51.6103 31.488 54.621L31.4828 54.8661C31.4757 55.0525 31.4825 55.2392 31.505 55.4378L31.5328 55.6408C31.6321 56.495 31.9079 57.3206 32.3491 58.0772C33.8163 60.6863 36.8667 62.0367 39.839 61.3929C42.8113 60.7491 44.9936 58.2653 45.1958 55.3414C45.1958 55.2974 45.1774 55.2552 45.1446 55.225C45.1228 55.2049 45.0959 55.1912 45.0675 55.1851L45.024 55.1817L39.459 55.5169C38.9894 55.5503 38.5255 55.3992 38.17 55.0971C37.8146 54.7951 37.5968 54.3669 37.5652 53.91L37.177 48.4262C37.1763 48.4171 37.1739 48.4082 37.1568 48.373C37.1315 48.3169 37.0765 48.2813 37.0164 48.2781ZM41.423 43.0011C45.7084 43.1223 49.3029 46.2016 49.9904 50.3408L50 50.4567L49.9977 50.6585C49.9737 50.9562 49.8538 51.2393 49.6545 51.4668C49.4041 51.7524 49.0477 51.9286 48.6588 51.9567L42.0133 52.39C41.1615 52.4382 40.4295 51.8051 40.3741 50.9735L39.9299 44.4491L39.9349 44.303L39.957 44.1382C40.0162 43.8462 40.1684 43.5794 40.3925 43.3764C40.6739 43.1216 41.0474 42.9866 41.423 43.0011ZM41.4113 44.449L41.8511 50.8781C41.8537 50.9172 41.888 50.9469 41.9214 50.945L48.5182 50.5135L48.4854 50.3335C47.8318 47.0802 45.0119 44.6644 41.6287 44.4593L41.4113 44.449Z" fill="#EA7C69"/>
</svg>
