<svg width="93" height="104" viewBox="0 0 93 104" fill="none" xmlns="http://www.w3.org/2000/svg">
<path d="M0 24C0 17.3726 5.37258 12 12 12H92V92H12C5.37259 92 0 86.6274 0 80V24Z" fill="#1F1D2B"/>
<path d="M88.5 8C92.5 4 92 0 92 0V12H80C80 12 84.5 12 88.5 8Z" fill="#1F1D2B"/>
<path d="M88.01 95.51C84.01 91.51 80.01 92.01 80.01 92.01H92.01V104.01C92.01 104.01 92.01 99.51 88.01 95.51Z" fill="#1F1D2B"/>
<rect x="12" y="25" width="56" height="56" rx="8" fill="#1F1D2B"/>
<path d="M41.9511 43.7164L42.1334 43.8865L42.8522 44.6052C43.0991 44.8509 43.4229 45.0024 43.7674 45.0365L43.9161 45.0438H44.9441C46.5479 45.0438 47.8594 46.2979 47.951 47.8788L47.9561 48.0558V49.0828C47.9561 49.4326 48.0767 49.7689 48.2943 50.0362L48.3934 50.1465L49.1122 50.8653C50.2437 51.9917 50.2943 53.7929 49.2577 54.98L49.1224 55.1251L48.3941 55.8535C48.1491 56.099 47.9975 56.4231 47.9634 56.7672L47.9561 56.9158V57.9448C47.9561 59.5485 46.702 60.8591 45.1211 60.9507L44.9441 60.9558H43.9161C43.5676 60.9558 43.2309 61.0769 42.9633 61.2951L42.8531 61.3945L42.1352 62.1113C41.01 63.2442 39.2074 63.2944 38.0199 62.2574L37.8658 62.1131L37.1487 61.396C36.9003 61.1494 36.5758 60.9973 36.2323 60.9631L36.0841 60.9558H35.0551C33.452 60.9558 32.1408 59.7023 32.0492 58.1217L32.0441 57.9448V56.9158C32.0441 56.5678 31.9228 56.2308 31.7047 55.9637L31.6054 55.8537L30.8883 55.1356C29.7557 54.0094 29.7055 52.2068 30.7425 51.0204L30.8778 50.8755L31.6039 50.1483C31.8508 49.8996 32.0027 49.5758 32.0368 49.2315L32.0441 49.0828V48.0558L32.0492 47.8789C32.1374 46.3567 33.3566 45.1371 34.8782 45.0489L35.0551 45.0438H36.0841C36.4326 45.0438 36.7694 44.9229 37.0364 44.7057L37.1464 44.6068L37.8646 43.8877C38.9909 42.7562 40.7934 42.7064 41.9511 43.7164ZM39.0415 44.8426L38.9268 44.9467L38.2055 45.669C37.6883 46.1826 37.0042 46.4897 36.2819 46.5373L36.0841 46.5438H35.0551C34.2675 46.5438 33.6198 47.1479 33.5503 47.9182L33.5441 48.0558V49.0828C33.5441 49.8119 33.2795 50.5131 32.8022 51.0612L32.6668 51.2067L31.9396 51.9349C31.3878 52.4892 31.3557 53.3649 31.8433 53.9589L31.9478 54.0738L32.6671 54.7941C33.1815 55.3097 33.4898 55.995 33.5376 56.7178L33.5441 56.9158V57.9448C33.5441 58.7328 34.1478 59.3801 34.9176 59.4496L35.0551 59.4558H36.0841C36.8119 59.4558 37.5136 59.7207 38.0618 60.198L38.2074 60.3335L38.9307 61.0568C39.489 61.6119 40.3649 61.6442 40.9584 61.1565L41.0731 61.0521L41.794 60.3322C42.3107 59.8179 42.9952 59.5101 43.7181 59.4623L43.9161 59.4558H44.9441C45.7328 59.4558 46.3804 58.8524 46.4499 58.0823L46.4561 57.9448V56.9158C46.4561 56.1869 46.7209 55.4839 47.1976 54.9383L47.3328 54.7935L48.0603 54.066C48.6121 53.511 48.644 52.6358 48.1571 52.0419L48.0528 51.9271L47.3309 51.2052C46.817 50.6877 46.5102 50.0042 46.4626 49.2809L46.4561 49.0828V48.0558C46.4561 47.2674 45.852 46.6195 45.0817 46.55L44.9441 46.5438H43.9161C43.1869 46.5438 42.4849 46.2794 41.938 45.8024L41.7928 45.6671L41.1048 44.9773L41.065 44.9403C40.5107 44.3885 39.6348 44.3562 39.0415 44.8426ZM43.0965 55.0424C43.1665 55.1124 43.2265 55.1924 43.2665 55.2824C43.2965 55.3724 43.3165 55.4724 43.3165 55.5724C43.3165 55.6734 43.2965 55.7624 43.2665 55.8524C43.2265 55.9424 43.1665 56.0324 43.0965 56.1024C42.9565 56.2424 42.7665 56.3224 42.5665 56.3224C42.3665 56.3224 42.1765 56.2424 42.0365 56.1024C41.9665 56.0324 41.9165 55.9424 41.8765 55.8524C41.8365 55.7624 41.8165 55.6734 41.8165 55.5724C41.8165 55.4724 41.8365 55.3724 41.8765 55.2824C41.9165 55.1924 41.9665 55.1124 42.0365 55.0424C42.3165 54.7624 42.8165 54.7624 43.0965 55.0424ZM43.1001 49.8992C43.3664 50.1654 43.3906 50.5821 43.1728 50.8757L43.1001 50.9598L37.9601 56.0998C37.6672 56.3927 37.1924 56.3927 36.8995 56.0998C36.6332 55.8335 36.609 55.4169 36.8269 55.1233L36.8995 55.0392L42.0395 49.8992C42.3324 49.6063 42.8072 49.6063 43.1001 49.8992ZM37.9564 49.9028C38.0964 50.0418 38.1764 50.2328 38.1764 50.4328C38.1764 50.5328 38.1664 50.6218 38.1264 50.7128C38.0864 50.8028 38.0264 50.8828 37.9564 50.9628C37.8864 51.0328 37.8064 51.0818 37.7164 51.1218C37.6264 51.1618 37.5264 51.1828 37.4264 51.1828C37.3264 51.1828 37.2364 51.1618 37.1464 51.1218C37.0564 51.0818 36.9664 51.0328 36.8964 50.9628C36.8264 50.8828 36.7764 50.8028 36.7364 50.7128C36.6964 50.6218 36.6764 50.5328 36.6764 50.4328C36.6764 50.3318 36.6964 50.2328 36.7364 50.1428C36.7764 50.0528 36.8264 49.9628 36.8964 49.9028C37.1864 49.6218 37.6764 49.6218 37.9564 49.9028Z" fill="#EA7C69"/>
</svg>
