<svg width="105" height="113" viewBox="0 0 105 113" fill="none" xmlns="http://www.w3.org/2000/svg">
<path d="M12 24C12 17.3726 17.3726 12 24 12H104V92H24C17.3726 92 12 86.6274 12 80V24Z" fill="#252836"/>
<path d="M100.5 8C104.5 4 104 0 104 0V12H92C92 12 96.5 12 100.5 8Z" fill="#252836"/>
<path d="M100.01 95.51C96.01 91.51 92.01 92.01 92.01 92.01H104.01V104.01C104.01 104.01 104.01 99.51 100.01 95.51Z" fill="#252836"/>
<g filter="url(#filter0_d_2005_4155)">
<rect x="24" y="25" width="56" height="56" rx="8" fill="#EA7C69"/>
<path d="M49.7304 43.7884C51.0004 42.7794 52.7804 42.7394 54.0894 43.6684L54.2504 43.7884L60.3394 48.6594C61.0094 49.1784 61.4204 49.9494 61.4904 50.7884L61.5004 50.9894V59.0984C61.5004 61.1884 59.8494 62.8884 57.7804 62.9984H55.7904C54.8394 62.9794 54.0704 62.2394 54.0004 61.3094L53.9904 61.1684V58.3094C53.9904 57.9984 53.7594 57.7394 53.4504 57.6884L53.3604 57.6784H50.6894C50.3704 57.6884 50.1104 57.9184 50.0704 58.2184L50.0604 58.3094V61.1594C50.0604 61.2184 50.0494 61.2884 50.0404 61.3384L50.0304 61.3594L50.0194 61.4284C49.9004 62.2794 49.2004 62.9284 48.3304 62.9894L48.2004 62.9984H46.4104C44.3204 62.9984 42.6104 61.3594 42.5004 59.2984V50.9894C42.5094 50.1384 42.8804 49.3484 43.5004 48.7984L49.7304 43.7884ZM53.3804 44.8784C52.6204 44.2684 51.5404 44.2394 50.7404 44.7684L50.5894 44.8784L44.5094 49.7794C44.1604 50.0384 43.9504 50.4284 43.9004 50.8384L43.8894 50.9984V59.0984C43.8894 60.4284 44.9294 61.5184 46.2504 61.5984H48.2004C48.4204 61.5984 48.6104 61.4494 48.6394 61.2394L48.6604 61.0594L48.6704 61.0084V58.3094C48.6704 57.2394 49.4904 56.3694 50.5404 56.2884H53.3604C54.4294 56.2884 55.2994 57.1094 55.3804 58.1594V61.1684C55.3804 61.3784 55.5304 61.5594 55.7304 61.5984H57.5894C58.9294 61.5984 60.0194 60.5694 60.0994 59.2584L60.1104 59.0984V50.9984C60.0994 50.5694 59.9204 50.1684 59.6104 49.8694L59.4804 49.7584L53.3804 44.8784Z" fill="white"/>
</g>
<defs>
<filter id="filter0_d_2005_4155" x="0" y="9" width="104" height="104" filterUnits="userSpaceOnUse" color-interpolation-filters="sRGB">
<feFlood flood-opacity="0" result="BackgroundImageFix"/>
<feColorMatrix in="SourceAlpha" type="matrix" values="0 0 0 0 0 0 0 0 0 0 0 0 0 0 0 0 0 0 127 0" result="hardAlpha"/>
<feOffset dy="8"/>
<feGaussianBlur stdDeviation="12"/>
<feColorMatrix type="matrix" values="0 0 0 0 0.917647 0 0 0 0 0.486275 0 0 0 0 0.411765 0 0 0 0.32 0"/>
<feBlend mode="normal" in2="BackgroundImageFix" result="effect1_dropShadow_2005_4155"/>
<feBlend mode="normal" in="SourceGraphic" in2="effect1_dropShadow_2005_4155" result="shape"/>
</filter>
</defs>
</svg>
