<svg width="93" height="104" viewBox="0 0 93 104" fill="none" xmlns="http://www.w3.org/2000/svg">
<path d="M0 24C0 17.3726 5.37258 12 12 12H92V92H12C5.37259 92 0 86.6274 0 80V24Z" fill="#1F1D2B"/>
<path d="M88.5 8C92.5 4 92 0 92 0V12H80C80 12 84.5 12 88.5 8Z" fill="#1F1D2B"/>
<path d="M88.01 95.51C84.01 91.51 80.01 92.01 80.01 92.01H92.01V104.01C92.01 104.01 92.01 99.51 88.01 95.51Z" fill="#1F1D2B"/>
<rect x="12" y="25" width="56" height="56" rx="8" fill="#1F1D2B"/>
<path d="M44.3212 43.7581C45.8351 43.7751 47.2761 44.416 48.3085 45.5315C49.3408 46.647 49.8745 48.1398 49.7865 49.617L49.7852 55.854C49.8745 57.3763 49.3408 58.8691 48.3085 59.9846C47.2761 61.1001 45.8351 61.741 44.3127 61.7581H35.2521C32.0825 61.7581 29.7959 59.1965 29.7959 55.8991V49.617C29.7959 46.3196 32.0825 43.7581 35.2521 43.7581H44.3212ZM44.3043 45.2864H35.2521C32.9587 45.2864 31.3133 47.1296 31.3133 49.617V55.8991C31.3133 58.3865 32.9587 60.2297 35.2521 60.2297H44.3043C45.4032 60.2173 46.4491 59.7521 47.1985 58.9424C47.9479 58.1327 48.3352 57.0492 48.2691 55.8991L48.2704 49.5719C48.3352 48.4669 47.9479 47.3834 47.1985 46.5737C46.4491 45.764 45.4032 45.2988 44.3043 45.2864ZM45.8199 49.3964C46.058 49.696 46.0359 50.1207 45.7841 50.3936L45.7017 50.4706L41.5947 53.7817C40.5972 54.5648 39.219 54.6039 38.1789 53.8956L38.0176 53.7775L33.8832 50.4726C33.5549 50.2102 33.5 49.7295 33.7605 49.3989C33.9973 49.0984 34.4133 49.0253 34.7335 49.2117L34.8265 49.2754L38.9557 52.5762C39.4187 52.9396 40.0534 52.9676 40.5367 52.6649L40.6542 52.5823L44.7535 49.2774C45.0806 49.0136 45.5581 49.0669 45.8199 49.3964Z" fill="#EA7C69"/>
</svg>
