<svg width="93" height="104" viewBox="0 0 93 104" fill="none" xmlns="http://www.w3.org/2000/svg">
<path d="M0 24C0 17.3726 5.37258 12 12 12H92V92H12C5.37259 92 0 86.6274 0 80V24Z" fill="#1F1D2B"/>
<path d="M88.5 8C92.5 4 92 0 92 0V12H80C80 12 84.5 12 88.5 8Z" fill="#1F1D2B"/>
<path d="M88.01 95.51C84.01 91.51 80.01 92.01 80.01 92.01H92.01V104.01C92.01 104.01 92.01 99.51 88.01 95.51Z" fill="#1F1D2B"/>
<rect x="12" y="25" width="56" height="56" rx="8" fill="#1F1D2B"/>
<path d="M42.608 60.6906C42.9045 60.9321 42.9515 61.3713 42.7129 61.6715C42.5366 61.8935 42.3327 62.0922 42.1167 62.255C41.3891 62.826 40.464 63.0849 39.5453 62.9754C38.6258 62.8659 37.787 62.3962 37.2146 61.6689C36.9774 61.3676 37.0265 60.9286 37.3242 60.6885C37.6219 60.4484 38.0555 60.4981 38.2927 60.7995C38.6379 61.2381 39.1467 61.523 39.7064 61.5896C40.2669 61.6564 40.8307 61.4986 41.2826 61.1443C41.4158 61.0437 41.5355 60.927 41.6389 60.7969C41.8775 60.4967 42.3114 60.4491 42.608 60.6906ZM33.1521 49.9997L33.1644 49.4039C33.1732 49.1491 33.1869 48.9125 33.2068 48.681C33.5065 45.4446 36.5956 43 39.9648 43H40.0361C43.4034 43 46.4934 45.4429 46.8034 48.6854C46.8212 48.8915 46.8288 49.0746 46.8311 49.3321L46.832 50.1198C46.8327 50.1916 46.8339 50.2547 46.8358 50.3135L46.845 50.5098L46.8896 50.6969C47.0303 51.218 47.2776 51.7052 47.6162 52.1282L47.7669 52.3055L47.8286 52.3847C48.2348 52.9917 48.4668 53.698 48.5 54.4587L48.499 54.862C48.4707 55.763 48.1399 56.6331 47.5338 57.3582C46.7311 58.2101 45.6434 58.7393 44.4873 58.8457C41.502 59.1699 38.49 59.1699 35.513 58.8466C34.349 58.7346 33.2644 58.2069 32.4266 57.3223C31.8088 56.5691 31.4804 55.6208 31.5009 54.6624L31.5017 54.4242C31.5374 53.6955 31.768 52.9898 32.1694 52.3802L32.2365 52.2938C32.7052 51.7799 33.0257 51.151 33.1647 50.4731L33.1497 50.534L33.1521 49.9997ZM40.0361 44.3953H39.9648C37.2665 44.3953 34.808 46.3409 34.5797 48.8068C34.568 48.9423 34.5587 49.0821 34.5514 49.2292L34.5353 49.6956L34.5288 50.6149L34.5144 50.7567C34.3244 51.683 33.8873 52.5409 33.2493 53.2404L33.2986 53.1833L33.2104 53.3291C33.0454 53.6265 32.9389 53.9495 32.8968 54.2682L32.8794 54.4587L32.8792 54.6774C32.8657 55.3142 33.0809 55.9356 33.4537 56.3931C34.0288 56.9985 34.8068 57.377 35.6517 57.4583C38.5393 57.7719 41.4527 57.7719 44.3514 57.4572C45.1871 57.3802 45.9645 57.002 46.5084 56.4267C46.92 55.933 47.1375 55.3097 47.1216 54.6536L47.1224 54.4901C47.1013 54.0186 46.951 53.5613 46.6873 53.1672L46.7026 53.1926L46.5647 53.0309C46.0893 52.4441 45.744 51.7635 45.5517 51.034L45.4868 50.7582L45.4739 50.6655C45.4642 50.5301 45.4585 50.4098 45.4555 50.2651L45.4528 49.3605C45.4509 49.1304 45.4447 48.9756 45.4307 48.8133C45.1944 46.3408 42.7336 44.3953 40.0361 44.3953Z" fill="#EA7C69"/>
</svg>
